<?xml version="1.0" encoding="us-ascii" standalone="no"?><svg xmlns="http://www.w3.org/2000/svg" xmlns:xlink="http://www.w3.org/1999/xlink" contentStyleType="text/css" height="120px" preserveAspectRatio="none" style="width:461px;height:120px;background:#1B1B1B;" version="1.1" viewBox="0 0 461 120" width="461px" zoomAndPan="magnify"><defs/><g><rect fill="#1B1B1B" height="120" style="stroke:none;stroke-width:1.0;" width="461" x="0" y="0"/><!--class AttackState--><g id="elem_AttackState"><rect fill="#313139" height="64.2969" id="AttackState" rx="2.5" ry="2.5" style="stroke:#E7E7E7;stroke-width:0.5;" width="121" x="7" y="49.27"/><ellipse cx="22" cy="65.27" fill="#2E5233" rx="11" ry="11" style="stroke:#E7E7E7;stroke-width:1.0;"/><path d="M24.3438,60.9419 C23.4063,60.5044 22.8125,60.3637 21.9375,60.3637 C19.3125,60.3637 17.3125,62.4419 17.3125,65.1606 L17.3125,66.2856 C17.3125,68.8638 19.4219,70.7544 22.3125,70.7544 C23.5313,70.7544 24.6875,70.4575 25.4375,69.9106 C26.0156,69.5044 26.3438,69.0513 26.3438,68.6606 C26.3438,68.2075 25.9531,67.8169 25.4844,67.8169 C25.2656,67.8169 25.0625,67.895 24.875,68.0825 C24.4219,68.5669 24.4219,68.5669 24.2344,68.6606 C23.8125,68.9263 23.125,69.0513 22.3594,69.0513 C20.3125,69.0513 19.0156,67.9575 19.0156,66.2544 L19.0156,65.1606 C19.0156,63.3794 20.2656,62.0669 22,62.0669 C22.5781,62.0669 23.1875,62.2231 23.6563,62.4731 C24.1406,62.7544 24.3125,62.9731 24.4063,63.3794 C24.4688,63.7856 24.5,63.9106 24.6406,64.0356 C24.7813,64.1763 25.0156,64.2856 25.2344,64.2856 C25.5,64.2856 25.7656,64.145 25.9375,63.9262 C26.0469,63.77 26.0781,63.5825 26.0781,63.1606 L26.0781,61.7387 C26.0781,61.3012 26.0625,61.1762 25.9688,61.02 C25.8125,60.7544 25.5313,60.6137 25.2344,60.6137 C24.9375,60.6137 24.7344,60.7075 24.5156,61.02 L24.3438,60.9419 Z " fill="#FFFFFF"/><text fill="#FFFFFF" font-family="sans-serif" font-size="14" lengthAdjust="spacing" textLength="89" x="36" y="70.1167">AttackState</text><line style="stroke:#E7E7E7;stroke-width:0.5;" x1="8" x2="127" y1="81.27" y2="81.27"/><text fill="#FFFFFF" font-family="sans-serif" font-size="14" lengthAdjust="spacing" textLength="102" x="13" y="98.2651">State : Attack</text><line style="stroke:#E7E7E7;stroke-width:0.5;" x1="8" x2="127" y1="105.5669" y2="105.5669"/></g><!--class StatePrincipal--><g id="elem_StatePrincipal"><rect fill="#313139" height="64.2969" id="StatePrincipal" rx="2.5" ry="2.5" style="stroke:#E7E7E7;stroke-width:0.5;" width="149" x="305" y="49.27"/><ellipse cx="326.75" cy="65.27" fill="#2E5233" rx="11" ry="11" style="stroke:#E7E7E7;stroke-width:1.0;"/><path d="M329.0938,60.9419 C328.1563,60.5044 327.5625,60.3637 326.6875,60.3637 C324.0625,60.3637 322.0625,62.4419 322.0625,65.1606 L322.0625,66.2856 C322.0625,68.8638 324.1719,70.7544 327.0625,70.7544 C328.2813,70.7544 329.4375,70.4575 330.1875,69.9106 C330.7656,69.5044 331.0938,69.0513 331.0938,68.6606 C331.0938,68.2075 330.7031,67.8169 330.2344,67.8169 C330.0156,67.8169 329.8125,67.895 329.625,68.0825 C329.1719,68.5669 329.1719,68.5669 328.9844,68.6606 C328.5625,68.9263 327.875,69.0513 327.1094,69.0513 C325.0625,69.0513 323.7656,67.9575 323.7656,66.2544 L323.7656,65.1606 C323.7656,63.3794 325.0156,62.0669 326.75,62.0669 C327.3281,62.0669 327.9375,62.2231 328.4063,62.4731 C328.8906,62.7544 329.0625,62.9731 329.1563,63.3794 C329.2188,63.7856 329.25,63.9106 329.3906,64.0356 C329.5313,64.1763 329.7656,64.2856 329.9844,64.2856 C330.25,64.2856 330.5156,64.145 330.6875,63.9262 C330.7969,63.77 330.8281,63.5825 330.8281,63.1606 L330.8281,61.7387 C330.8281,61.3012 330.8125,61.1762 330.7188,61.02 C330.5625,60.7544 330.2813,60.6137 329.9844,60.6137 C329.6875,60.6137 329.4844,60.7075 329.2656,61.02 L329.0938,60.9419 Z " fill="#FFFFFF"/><text fill="#FFFFFF" font-family="sans-serif" font-size="14" lengthAdjust="spacing" textLength="102" x="342.25" y="70.1167">StatePrincipal</text><line style="stroke:#E7E7E7;stroke-width:0.5;" x1="306" x2="453" y1="81.27" y2="81.27"/><text fill="#FFFFFF" font-family="sans-serif" font-size="14" lengthAdjust="spacing" textLength="137" x="311" y="98.2651">State : attack/scan</text><line style="stroke:#E7E7E7;stroke-width:0.5;" x1="306" x2="453" y1="105.5669" y2="105.5669"/></g><!--class ScanState--><g id="elem_ScanState"><rect fill="#313139" height="64.2969" id="ScanState" rx="2.5" ry="2.5" style="stroke:#E7E7E7;stroke-width:0.5;" width="106" x="163.5" y="49.27"/><ellipse cx="178.5" cy="65.27" fill="#2E5233" rx="11" ry="11" style="stroke:#E7E7E7;stroke-width:1.0;"/><path d="M180.8438,60.9419 C179.9063,60.5044 179.3125,60.3637 178.4375,60.3637 C175.8125,60.3637 173.8125,62.4419 173.8125,65.1606 L173.8125,66.2856 C173.8125,68.8638 175.9219,70.7544 178.8125,70.7544 C180.0313,70.7544 181.1875,70.4575 181.9375,69.9106 C182.5156,69.5044 182.8438,69.0513 182.8438,68.6606 C182.8438,68.2075 182.4531,67.8169 181.9844,67.8169 C181.7656,67.8169 181.5625,67.895 181.375,68.0825 C180.9219,68.5669 180.9219,68.5669 180.7344,68.6606 C180.3125,68.9263 179.625,69.0513 178.8594,69.0513 C176.8125,69.0513 175.5156,67.9575 175.5156,66.2544 L175.5156,65.1606 C175.5156,63.3794 176.7656,62.0669 178.5,62.0669 C179.0781,62.0669 179.6875,62.2231 180.1563,62.4731 C180.6406,62.7544 180.8125,62.9731 180.9063,63.3794 C180.9688,63.7856 181,63.9106 181.1406,64.0356 C181.2813,64.1763 181.5156,64.2856 181.7344,64.2856 C182,64.2856 182.2656,64.145 182.4375,63.9262 C182.5469,63.77 182.5781,63.5825 182.5781,63.1606 L182.5781,61.7387 C182.5781,61.3012 182.5625,61.1762 182.4688,61.02 C182.3125,60.7544 182.0313,60.6137 181.7344,60.6137 C181.4375,60.6137 181.2344,60.7075 181.0156,61.02 L180.8438,60.9419 Z " fill="#FFFFFF"/><text fill="#FFFFFF" font-family="sans-serif" font-size="14" lengthAdjust="spacing" textLength="74" x="192.5" y="70.1167">ScanState</text><line style="stroke:#E7E7E7;stroke-width:0.5;" x1="164.5" x2="268.5" y1="81.27" y2="81.27"/><text fill="#FFFFFF" font-family="sans-serif" font-size="14" lengthAdjust="spacing" textLength="87" x="169.5" y="98.2651">State : Scan</text><line style="stroke:#E7E7E7;stroke-width:0.5;" x1="164.5" x2="268.5" y1="105.5669" y2="105.5669"/></g><!--link AttackState to StatePrincipal--><g id="link_AttackState_StatePrincipal"><path codeLine="1" d="M106.2756,49.1375 C122.965,37.309 143.364,25.3278 164,19.27 C209.204,6 224.443,7.268 270,19.27 C292.921,25.3087 310.9896,34.1927 330.0706,46.0819 " fill="none" id="AttackState-to-StatePrincipal" style="stroke:#E7E7E7;stroke-width:1.0;"/><polygon fill="#E7E7E7" points="335.163,49.2549,329.6398,41.1005,330.9194,46.6107,325.4091,47.8903,335.163,49.2549" style="stroke:#E7E7E7;stroke-width:1.0;"/></g><!--link ScanState to StatePrincipal--><g id="link_ScanState_StatePrincipal"><path codeLine="2" d="M269.666,81.27 C281.393,81.27 287.12,81.27 298.847,81.27 " fill="none" id="ScanState-to-StatePrincipal" style="stroke:#E7E7E7;stroke-width:1.0;"/><polygon fill="#E7E7E7" points="304.847,81.27,295.847,77.27,299.847,81.27,295.847,85.27,304.847,81.27" style="stroke:#E7E7E7;stroke-width:1.0;"/></g><!--SRC=[SomfIKpE3Yv9B4bLqBLJ03C2YZBpaZCB4dEuWfCJyy12c59Sg7m5AuW289q8DbA_6AYNon79U8GAY2Z2T2Gfa1W0]--></g></svg>