<?xml version="1.0" encoding="us-ascii" standalone="no"?><svg xmlns="http://www.w3.org/2000/svg" xmlns:xlink="http://www.w3.org/1999/xlink" contentStyleType="text/css" height="863px" preserveAspectRatio="none" style="width:1458px;height:863px;background:#1B1B1B;" version="1.1" viewBox="0 0 1458 863" width="1458px" zoomAndPan="magnify"><defs/><g><rect fill="#1B1B1B" height="863" style="stroke:none;stroke-width:1.0;" width="1458" x="0" y="0"/><line style="stroke:#E7E7E7;stroke-width:0.5;stroke-dasharray:5.0,5.0;" x1="41" x2="41" y1="36.2969" y2="828.0156"/><line style="stroke:#E7E7E7;stroke-width:0.5;stroke-dasharray:5.0,5.0;" x1="295" x2="295" y1="36.2969" y2="828.0156"/><line style="stroke:#E7E7E7;stroke-width:0.5;stroke-dasharray:5.0,5.0;" x1="458" x2="458" y1="36.2969" y2="828.0156"/><line style="stroke:#E7E7E7;stroke-width:0.5;stroke-dasharray:5.0,5.0;" x1="672.5" x2="672.5" y1="36.2969" y2="828.0156"/><line style="stroke:#E7E7E7;stroke-width:0.5;stroke-dasharray:5.0,5.0;" x1="881" x2="881" y1="36.2969" y2="828.0156"/><line style="stroke:#E7E7E7;stroke-width:0.5;stroke-dasharray:5.0,5.0;" x1="1114" x2="1114" y1="36.2969" y2="828.0156"/><line style="stroke:#E7E7E7;stroke-width:0.5;stroke-dasharray:5.0,5.0;" x1="1285.5" x2="1285.5" y1="36.2969" y2="828.0156"/><rect fill="#222222" height="30.2969" rx="2.5" ry="2.5" style="stroke:#E7E7E7;stroke-width:0.5;" width="72" x="5" y="5"/><text fill="#FFFFFF" font-family="sans-serif" font-size="14" lengthAdjust="spacing" textLength="58" x="12" y="24.9951">main.py</text><rect fill="#222222" height="30.2969" rx="2.5" ry="2.5" style="stroke:#E7E7E7;stroke-width:0.5;" width="72" x="5" y="827.0156"/><text fill="#FFFFFF" font-family="sans-serif" font-size="14" lengthAdjust="spacing" textLength="58" x="12" y="847.0107">main.py</text><rect fill="#222222" height="30.2969" rx="2.5" ry="2.5" style="stroke:#E7E7E7;stroke-width:0.5;" width="110" x="240" y="5"/><text fill="#FFFFFF" font-family="sans-serif" font-size="14" lengthAdjust="spacing" textLength="96" x="247" y="24.9951">SpecialAgent</text><rect fill="#222222" height="30.2969" rx="2.5" ry="2.5" style="stroke:#E7E7E7;stroke-width:0.5;" width="110" x="240" y="827.0156"/><text fill="#FFFFFF" font-family="sans-serif" font-size="14" lengthAdjust="spacing" textLength="96" x="247" y="847.0107">SpecialAgent</text><rect fill="#222222" height="30.2969" rx="2.5" ry="2.5" style="stroke:#E7E7E7;stroke-width:0.5;" width="58" x="429" y="5"/><text fill="#FFFFFF" font-family="sans-serif" font-size="14" lengthAdjust="spacing" textLength="44" x="436" y="24.9951">Agent</text><rect fill="#222222" height="30.2969" rx="2.5" ry="2.5" style="stroke:#E7E7E7;stroke-width:0.5;" width="58" x="429" y="827.0156"/><text fill="#FFFFFF" font-family="sans-serif" font-size="14" lengthAdjust="spacing" textLength="44" x="436" y="847.0107">Agent</text><rect fill="#222222" height="30.2969" rx="2.5" ry="2.5" style="stroke:#E7E7E7;stroke-width:0.5;" width="113" x="616.5" y="5"/><text fill="#FFFFFF" font-family="sans-serif" font-size="14" lengthAdjust="spacing" textLength="99" x="623.5" y="24.9951">StateMachine</text><rect fill="#222222" height="30.2969" rx="2.5" ry="2.5" style="stroke:#E7E7E7;stroke-width:0.5;" width="113" x="616.5" y="827.0156"/><text fill="#FFFFFF" font-family="sans-serif" font-size="14" lengthAdjust="spacing" textLength="99" x="623.5" y="847.0107">StateMachine</text><rect fill="#222222" height="30.2969" rx="2.5" ry="2.5" style="stroke:#E7E7E7;stroke-width:0.5;" width="54" x="854" y="5"/><text fill="#FFFFFF" font-family="sans-serif" font-size="14" lengthAdjust="spacing" textLength="40" x="861" y="24.9951">State</text><rect fill="#222222" height="30.2969" rx="2.5" ry="2.5" style="stroke:#E7E7E7;stroke-width:0.5;" width="54" x="854" y="827.0156"/><text fill="#FFFFFF" font-family="sans-serif" font-size="14" lengthAdjust="spacing" textLength="40" x="861" y="847.0107">State</text><rect fill="#222222" height="30.2969" rx="2.5" ry="2.5" style="stroke:#E7E7E7;stroke-width:0.5;" width="88" x="1070" y="5"/><text fill="#FFFFFF" font-family="sans-serif" font-size="14" lengthAdjust="spacing" textLength="74" x="1077" y="24.9951">ScanState</text><rect fill="#222222" height="30.2969" rx="2.5" ry="2.5" style="stroke:#E7E7E7;stroke-width:0.5;" width="88" x="1070" y="827.0156"/><text fill="#FFFFFF" font-family="sans-serif" font-size="14" lengthAdjust="spacing" textLength="74" x="1077" y="847.0107">ScanState</text><rect fill="#222222" height="30.2969" rx="2.5" ry="2.5" style="stroke:#E7E7E7;stroke-width:0.5;" width="103" x="1234.5" y="5"/><text fill="#FFFFFF" font-family="sans-serif" font-size="14" lengthAdjust="spacing" textLength="89" x="1241.5" y="24.9951">AttackState</text><rect fill="#222222" height="30.2969" rx="2.5" ry="2.5" style="stroke:#E7E7E7;stroke-width:0.5;" width="103" x="1234.5" y="827.0156"/><text fill="#FFFFFF" font-family="sans-serif" font-size="14" lengthAdjust="spacing" textLength="89" x="1241.5" y="847.0107">AttackState</text><polygon fill="#E7E7E7" points="283,63.4297,293,67.4297,283,71.4297,287,67.4297" style="stroke:#E7E7E7;stroke-width:1.0;"/><line style="stroke:#E7E7E7;stroke-width:1.0;" x1="41" x2="289" y1="67.4297" y2="67.4297"/><text fill="#FFFFFF" font-family="sans-serif" font-size="13" lengthAdjust="spacing" textLength="201" x="48" y="62.3638">Instanciation sp&#233;cial d'un agent</text><polygon fill="#E7E7E7" points="446,92.5625,456,96.5625,446,100.5625,450,96.5625" style="stroke:#E7E7E7;stroke-width:1.0;"/><line style="stroke:#E7E7E7;stroke-width:1.0;" x1="295" x2="452" y1="96.5625" y2="96.5625"/><text fill="#FFFFFF" font-family="sans-serif" font-size="13" lengthAdjust="spacing" textLength="123" x="302" y="91.4966">Instanciation Agent</text><polygon fill="#E7E7E7" points="661,121.6953,671,125.6953,661,129.6953,665,125.6953" style="stroke:#E7E7E7;stroke-width:1.0;"/><line style="stroke:#E7E7E7;stroke-width:1.0;" x1="295" x2="667" y1="125.6953" y2="125.6953"/><text fill="#FFFFFF" font-family="sans-serif" font-size="13" lengthAdjust="spacing" textLength="152" x="302" y="120.6294">Instancier StateMachine</text><polygon fill="#E7E7E7" points="306,150.8281,296,154.8281,306,158.8281,302,154.8281" style="stroke:#E7E7E7;stroke-width:1.0;"/><line style="stroke:#E7E7E7;stroke-width:1.0;" x1="300" x2="672" y1="154.8281" y2="154.8281"/><text fill="#FFFFFF" font-family="sans-serif" font-size="13" lengthAdjust="spacing" textLength="344" x="312" y="149.7622">affectation de l'instance dans attribute fsm de l'agent</text><polygon fill="#E7E7E7" points="661,179.9609,671,183.9609,661,187.9609,665,183.9609" style="stroke:#E7E7E7;stroke-width:1.0;"/><line style="stroke:#E7E7E7;stroke-width:1.0;" x1="295" x2="667" y1="183.9609" y2="183.9609"/><text fill="#FFFFFF" font-family="sans-serif" font-size="13" lengthAdjust="spacing" textLength="354" x="302" y="178.895">Set fsm &#224; &#233;tat initial self.__fsm.setState(ScanState(...))</text><polygon fill="#E7E7E7" points="1102,209.0938,1112,213.0938,1102,217.0938,1106,213.0938" style="stroke:#E7E7E7;stroke-width:1.0;"/><line style="stroke:#E7E7E7;stroke-width:1.0;" x1="673" x2="1108" y1="213.0938" y2="213.0938"/><text fill="#FFFFFF" font-family="sans-serif" font-size="13" lengthAdjust="spacing" textLength="131" x="680" y="208.0278">instancier ScanState</text><polygon fill="#E7E7E7" points="892,253.3594,882,257.3594,892,261.3594,888,257.3594" style="stroke:#E7E7E7;stroke-width:1.0;"/><line style="stroke:#E7E7E7;stroke-width:1.0;" x1="886" x2="1113" y1="257.3594" y2="257.3594"/><text fill="#FFFFFF" font-family="sans-serif" font-size="13" lengthAdjust="spacing" textLength="173" x="898" y="237.1606">Instancier State via super()</text><text fill="#FFFFFF" font-family="sans-serif" font-size="13" lengthAdjust="spacing" textLength="205" x="902" y="252.2935">dans constructeur de ScanState</text><polygon fill="#E7E7E7" points="52,282.4922,42,286.4922,52,290.4922,48,286.4922" style="stroke:#E7E7E7;stroke-width:1.0;"/><line style="stroke:#E7E7E7;stroke-width:1.0;" x1="46" x2="294" y1="286.4922" y2="286.4922"/><text fill="#FFFFFF" font-family="sans-serif" font-size="13" lengthAdjust="spacing" textLength="230" x="58" y="281.4263">affectation de l'instance dans agent</text><polygon fill="#E7E7E7" points="684,311.625,674,315.625,684,319.625,680,315.625" style="stroke:#E7E7E7;stroke-width:1.0;"/><line style="stroke:#E7E7E7;stroke-width:1.0;" x1="678" x2="1113" y1="315.625" y2="315.625"/><text fill="#FFFFFF" font-family="sans-serif" font-size="13" lengthAdjust="spacing" textLength="257" x="690" y="310.5591">Affectation actualState de stateMachine</text><polygon fill="#E7E7E7" points="446,340.7578,456,344.7578,446,348.7578,450,344.7578" style="stroke:#E7E7E7;stroke-width:1.0;"/><line style="stroke:#E7E7E7;stroke-width:1.0;" x1="41" x2="452" y1="344.7578" y2="344.7578"/><text fill="#FFFFFF" font-family="sans-serif" font-size="13" lengthAdjust="spacing" textLength="137" x="48" y="339.6919">Appel Agent.update()</text><polygon fill="#E7E7E7" points="306,369.8906,296,373.8906,306,377.8906,302,373.8906" style="stroke:#E7E7E7;stroke-width:1.0;"/><line style="stroke:#E7E7E7;stroke-width:1.0;" x1="300" x2="457" y1="373.8906" y2="373.8906"/><text fill="#FFFFFF" font-family="sans-serif" font-size="13" lengthAdjust="spacing" textLength="139" x="312" y="368.8247">Appel self.onUpdate()</text><polygon fill="#E7E7E7" points="661,399.0234,671,403.0234,661,407.0234,665,403.0234" style="stroke:#E7E7E7;stroke-width:1.0;"/><line style="stroke:#E7E7E7;stroke-width:1.0;" x1="295" x2="667" y1="403.0234" y2="403.0234"/><text fill="#FFFFFF" font-family="sans-serif" font-size="13" lengthAdjust="spacing" textLength="136" x="302" y="397.9575">self.__fsm.doAction()</text><polygon fill="#E7E7E7" points="869,428.1563,879,432.1563,869,436.1563,873,432.1563" style="stroke:#E7E7E7;stroke-width:1.0;"/><line style="stroke:#E7E7E7;stroke-width:1.0;" x1="673" x2="875" y1="432.1563" y2="432.1563"/><text fill="#FFFFFF" font-family="sans-serif" font-size="13" lengthAdjust="spacing" textLength="184" x="680" y="427.0903">self.__actualState.doAction()</text><polygon fill="#E7E7E7" points="1102,457.2891,1112,461.2891,1102,465.2891,1106,461.2891" style="stroke:#E7E7E7;stroke-width:1.0;"/><line style="stroke:#E7E7E7;stroke-width:1.0;" x1="881" x2="1108" y1="461.2891" y2="461.2891"/><text fill="#FFFFFF" font-family="sans-serif" font-size="13" lengthAdjust="spacing" textLength="66" x="888" y="456.2231">doAction()</text><line style="stroke:#E7E7E7;stroke-width:1.0;" x1="1114" x2="1156" y1="520.6875" y2="520.6875"/><line style="stroke:#E7E7E7;stroke-width:1.0;" x1="1156" x2="1156" y1="520.6875" y2="533.6875"/><line style="stroke:#E7E7E7;stroke-width:1.0;" x1="1115" x2="1156" y1="533.6875" y2="533.6875"/><polygon fill="#E7E7E7" points="1125,529.6875,1115,533.6875,1125,537.6875,1121,533.6875" style="stroke:#E7E7E7;stroke-width:1.0;"/><text fill="#FFFFFF" font-family="sans-serif" font-size="13" lengthAdjust="spacing" textLength="120" x="1121" y="485.356">Regarde si ennemi</text><text fill="#FFFFFF" font-family="sans-serif" font-size="13" lengthAdjust="spacing" textLength="158" x="1121" y="500.4888">si non d&#233;placer en ronde</text><text fill="#FFFFFF" font-family="sans-serif" font-size="13" lengthAdjust="spacing" textLength="119" x="1121" y="515.6216">si oui changer &#233;tat</text><polygon fill="#E7E7E7" points="684,558.8203,674,562.8203,684,566.8203,680,562.8203" style="stroke:#E7E7E7;stroke-width:1.0;"/><line style="stroke:#E7E7E7;stroke-width:1.0;" x1="678" x2="1113" y1="562.8203" y2="562.8203"/><text fill="#FFFFFF" font-family="sans-serif" font-size="13" lengthAdjust="spacing" textLength="275" x="690" y="557.7544">setState(AttackState(...)) sur StateMachine</text><polygon fill="#E7E7E7" points="446,587.9531,456,591.9531,446,595.9531,450,591.9531" style="stroke:#E7E7E7;stroke-width:1.0;"/><line style="stroke:#E7E7E7;stroke-width:1.0;" x1="41" x2="452" y1="591.9531" y2="591.9531"/><text fill="#FFFFFF" font-family="sans-serif" font-size="13" lengthAdjust="spacing" textLength="137" x="48" y="586.8872">Appel Agent.update()</text><polygon fill="#E7E7E7" points="306,617.0859,296,621.0859,306,625.0859,302,621.0859" style="stroke:#E7E7E7;stroke-width:1.0;"/><line style="stroke:#E7E7E7;stroke-width:1.0;" x1="300" x2="457" y1="621.0859" y2="621.0859"/><text fill="#FFFFFF" font-family="sans-serif" font-size="13" lengthAdjust="spacing" textLength="139" x="312" y="616.02">Appel self.onUpdate()</text><polygon fill="#E7E7E7" points="661,646.2188,671,650.2188,661,654.2188,665,650.2188" style="stroke:#E7E7E7;stroke-width:1.0;"/><line style="stroke:#E7E7E7;stroke-width:1.0;" x1="295" x2="667" y1="650.2188" y2="650.2188"/><text fill="#FFFFFF" font-family="sans-serif" font-size="13" lengthAdjust="spacing" textLength="136" x="302" y="645.1528">self.__fsm.doAction()</text><polygon fill="#E7E7E7" points="869,675.3516,879,679.3516,869,683.3516,873,679.3516" style="stroke:#E7E7E7;stroke-width:1.0;"/><line style="stroke:#E7E7E7;stroke-width:1.0;" x1="673" x2="875" y1="679.3516" y2="679.3516"/><text fill="#FFFFFF" font-family="sans-serif" font-size="13" lengthAdjust="spacing" textLength="184" x="680" y="674.2856">self.__actualState.doAction()</text><polygon fill="#E7E7E7" points="1102,704.4844,1112,708.4844,1102,712.4844,1106,708.4844" style="stroke:#E7E7E7;stroke-width:1.0;"/><line style="stroke:#E7E7E7;stroke-width:1.0;" x1="881" x2="1108" y1="708.4844" y2="708.4844"/><text fill="#FFFFFF" font-family="sans-serif" font-size="13" lengthAdjust="spacing" textLength="66" x="888" y="703.4185">doAction()</text><line style="stroke:#E7E7E7;stroke-width:1.0;" x1="1286" x2="1328" y1="767.8828" y2="767.8828"/><line style="stroke:#E7E7E7;stroke-width:1.0;" x1="1328" x2="1328" y1="767.8828" y2="780.8828"/><line style="stroke:#E7E7E7;stroke-width:1.0;" x1="1287" x2="1328" y1="780.8828" y2="780.8828"/><polygon fill="#E7E7E7" points="1297,776.8828,1287,780.8828,1297,784.8828,1293,780.8828" style="stroke:#E7E7E7;stroke-width:1.0;"/><text fill="#FFFFFF" font-family="sans-serif" font-size="13" lengthAdjust="spacing" textLength="120" x="1293" y="732.5513">Regarde si ennemi</text><text fill="#FFFFFF" font-family="sans-serif" font-size="13" lengthAdjust="spacing" textLength="158" x="1293" y="747.6841">si non d&#233;placer en ronde</text><text fill="#FFFFFF" font-family="sans-serif" font-size="13" lengthAdjust="spacing" textLength="119" x="1293" y="762.8169">si oui changer &#233;tat</text><polygon fill="#E7E7E7" points="684,806.0156,674,810.0156,684,814.0156,680,810.0156" style="stroke:#E7E7E7;stroke-width:1.0;"/><line style="stroke:#E7E7E7;stroke-width:1.0;" x1="678" x2="1285" y1="810.0156" y2="810.0156"/><text fill="#FFFFFF" font-family="sans-serif" font-size="13" lengthAdjust="spacing" textLength="265" x="690" y="804.9497">setState(ScanState(...)) sur StateMachine</text><!--SRC=[tLCnRiCm3Dpp2cwrX_e16GfuxD2bGRS00IlJYL275cogG7_JDU_mnofBZYFRQTgXKpU9HrAyEyfW8rffWonmHCsP-LYPABOnf3HM-PvO9i0oiX4KUa9rq4nBO1fHoCjeBeBgBSHNmp1m_p2P0TRmoAqWkuZecg4rtQb7eRYp3EYdcXIu1lumByolfiOaBXNKJDd5b_c4Qy2o92NXbOAWkjEX3K61t0AADFhL2a7P7aC2_cAM3Oalw3wXEpa4D6lfYRTKbTbkvx2i9V55oIXmacLPcYu7FkDhq177qPRnDCwn50FUDK9h3JL9kkN0JTKkgR5Ao3OzjQZZZDpWxyzg1MaMyuowv54zAh5OXKJNguqzYpTgC2etXgfmoQmfUhdIrKN-YQaXrsjTyyiv-RPbaJD5dQj-nEIA5q7U8JcYi2YQEHV34tqkAS-qnwPNGWCnqr5lsHsvbxexcGgLCvCOcfeByb1jDQW3yju1VirkIJ-kM_HpmyAvlPXzcNyjVyJVyukkV-B1hFytBim-_SA3Bm00]--></g></svg>